<svg xmlns="http://www.w3.org/2000/svg" viewBox="0 0 400 400"><defs><style>.cls-1{fill:none;}.cls-2,.cls-3{fill:#363636;}.cls-3{fill-rule:evenodd;}</style></defs><title>Page-1</title><g id="Layer_2" data-name="Layer 2"><g id="Layer_1-2" data-name="Layer 1"><rect class="cls-1" width="400" height="400"/><path id="Combined-Shape" class="cls-2" d="M96.61,320l13.93-45.45c-26.85-20.43-43.73-50-43.73-83C66.81,130,125.91,80,198.81,80s132,50,132,111.58c0,30.7-12.62,48.08-36.35,68.26l14.34,43.32-31.56-19.39c-20.55,11.16-52.2,19.39-78.43,19.39a151.34,151.34,0,0,1-59.71-12ZM77.45,191.42c0,1.52,0,3,.13,4.53a8.53,8.53,0,0,0,.11,1.67,27.15,27.15,0,0,0,.24,2.73c.08.9.13,1.37.21,2.14.16,1.25.35,2.49.56,3.72C80,181.1,95.92,159.4,114.78,143.29,144.12,118.18,197.43,94.7,232.15,124a77.27,77.27,0,0,1,12.14,13.22,138,138,0,0,1,40.9,21.93c11.71,9.14,24.93,27.95,30.79,42.56V191.42c0-55.82-53.39-101.08-119.26-101.08S77.45,135.6,77.45,191.42Zm150.05,73.2c-20.07,7.75-52.51,17.52-74.08,16.07l-9,4.3c5.62,1.92,15.87,4,21.71,5.18,1.87.39,9.61,1.59,11.42,1.84l5.87.54,7.37.41c2.2,0,4.21.14,6.35.14,1.43,0,3.81,0,7.17-.12,1,0,2.84-.09,5.6-.27,1.18-.1,3.49-.35,6.95-.76l5.58-.83c1.07-.17,3.32-.61,6.75-1.3l8-2q1.41-.4,10.74-3.43c3.25-1.19,19.24-7.32,20.23-7.82l-16.74-12C244.43,265.09,234.5,264.87,227.5,264.62Zm78.13-49.39c.51-22-17.07-39.22-33.94-50.21-1.27-.83-2.59-1.66-3.95-2.47a124.55,124.55,0,0,0-13-6.89c19.56,31.26,21.44,81.74-12.56,100.17-1.24.66-2.51,1.31-3.78,1.92H244c1.77,0,3.63-.09,5.31-.2,7.28-.41,10.08,2.17,16.25,6.46l2.76,1.91.64-.37-.62.39,22.41,15.64-10-24.32-.48.38.48-.39-1.06-2.57a.49.49,0,0,1,.3-.14C292.19,246.15,305.28,231.21,305.63,215.23Zm-88.06-91.59c-27.67-15.32-61.1,1-83.53,18.26-21.54,16.55-45,41.61-41.57,70.15,2.57,21.2,15.36,40.87,33.15,53.77h-.13c.24.13.39.23.37.31L113.46,299l30.39-22.92c8-6.06,12-6.2,21.74-6,41.45,1.18,88.57-15.69,89.65-61.71C255.92,179.46,245.93,139.34,217.57,123.64Z"/><path id="Path" class="cls-3" d="M147.81,142.75S174,116.18,207.51,130c36.11,14.86,39.3,68,39.3,68-38.8-86.67-99-55.25-99-55.25Z"/></g></g></svg>