<svg xmlns="http://www.w3.org/2000/svg" viewBox="0 0 264 240"><defs><style>.cls-1{fill-rule:evenodd;}</style></defs><title>Page-1</title><g id="Layer_2" data-name="Layer 2"><g id="Layer_1-2" data-name="Layer 1"><path id="Combined-Shape" d="M29.81,240l13.93-45.45C16.88,174.12,0,144.52,0,111.58,0,50,59.1,0,132,0S264,50,264,111.58c0,30.7-12.62,48.08-36.35,68.26L242,223.16l-31.57-19.39c-20.55,11.16-52.2,19.39-78.43,19.39a151.34,151.34,0,0,1-59.71-12ZM10.65,111.42c0,1.52,0,3,.12,4.53a8.53,8.53,0,0,0,.11,1.67,27.15,27.15,0,0,0,.24,2.73c.08.9.13,1.37.21,2.14.16,1.25.35,2.49.56,3.72C13.16,101.1,29.12,79.4,48,63.29,77.32,38.18,130.62,14.7,165.34,44a77.27,77.27,0,0,1,12.14,13.22,138.18,138.18,0,0,1,40.91,21.93c11.71,9.14,24.92,28,30.78,42.56V111.42c0-55.82-53.39-101.08-119.26-101.08S10.65,55.6,10.65,111.42Zm150,73.2c-20.07,7.75-52.51,17.52-74.08,16.07l-9,4.3c5.62,1.92,15.87,4,21.71,5.18,1.87.39,9.62,1.59,11.43,1.84l5.86.54L124,213c2.2,0,4.21.14,6.35.14q2.15,0,7.17-.12c1,0,2.85-.09,5.6-.27,1.18-.1,3.49-.35,6.95-.76l5.58-.83c1.07-.17,3.32-.61,6.75-1.3l8-2q1.41-.41,10.74-3.43c3.25-1.19,19.23-7.32,20.23-7.82l-16.74-12C177.63,185.09,167.69,184.87,160.69,184.62Zm78.13-49.39c.52-22-17.06-39.22-33.94-50.21-1.27-.83-2.59-1.66-3.94-2.47a125.72,125.72,0,0,0-13-6.89c19.56,31.26,21.44,81.74-12.56,100.17-1.23.66-2.51,1.31-3.78,1.92h5.55c1.77,0,3.63-.09,5.31-.2,7.29-.41,10.08,2.17,16.25,6.46l2.76,1.91.64-.37-.62.39,22.41,15.64-10-24.32-.47.38.47-.39-1.06-2.57a.49.49,0,0,1,.3-.14C225.38,166.15,238.47,151.21,238.82,135.23ZM150.76,43.64c-27.67-15.32-61.1,1-83.52,18.26-21.55,16.55-45,41.61-41.58,70.15,2.57,21.2,15.36,40.87,33.15,53.77h-.13c.24.13.39.23.37.31L46.66,219,77,196.1c8-6.06,12-6.2,21.75-6,41.44,1.18,88.56-15.69,89.64-61.71C189.11,99.46,179.13,59.34,150.76,43.64Z"/><path id="Path" class="cls-1" d="M81,62.75S107.21,36.18,140.71,50C176.81,64.83,180,118,180,118,141.2,31.33,81,62.75,81,62.75Z"/></g></g></svg>