<?xml version="1.0" encoding="utf-8"?>
<!-- Generator: Adobe Illustrator 15.1.0, SVG Export Plug-In . SVG Version: 6.00 Build 0)  -->
<!DOCTYPE svg PUBLIC "-//W3C//DTD SVG 1.1//EN" "http://www.w3.org/Graphics/SVG/1.1/DTD/svg11.dtd">
<svg version="1.1" id="Layer_1" xmlns="http://www.w3.org/2000/svg" xmlns:xlink="http://www.w3.org/1999/xlink" x="0px" y="0px"
	 width="264px" height="240px" viewBox="0 0 264 240" enable-background="new 0 0 264 240" xml:space="preserve">
<g id="Page-1">
	<g id="Artboard-Copy">
		<g id="Logo-Mono-Copy">
			<path id="Combined-Shape" fill="#393D3F" d="M29.807,240l13.929-45.454C16.884,174.121,0,144.518,0,111.579
				C0,49.956,59.099,0,132,0s132,49.956,132,111.579c0,30.698-12.618,48.085-36.352,68.259l14.348,43.32l-31.564-19.385
				c-20.547,11.152-52.199,19.385-78.432,19.385c-21.489,0-41.778-4.341-59.708-12.041L29.807,240z M10.645,111.421
				c0,1.524,0,3.026,0.129,4.528c0,0.558,0,1.116,0.107,1.674c0,0.923,0.151,1.824,0.237,2.725c0.086,0.902,0.129,1.374,0.215,2.146
				c0.158,1.244,0.345,2.482,0.56,3.713c1.271-25.108,17.222-46.804,36.081-62.92c29.342-25.108,82.644-48.585,117.368-19.25
				c4.549,3.922,8.623,8.358,12.142,13.22c14.777,4.958,28.606,12.374,40.902,21.932c11.711,9.142,24.929,27.948,30.784,42.562
				v-10.329c0-55.817-53.389-101.076-119.262-101.076C64.033,10.345,10.645,55.604,10.645,111.421z M160.695,184.625
				c-20.072,7.746-52.512,17.511-74.083,16.064l-9.013,4.297c5.618,1.92,15.872,3.969,21.71,5.184
				c1.867,0.387,9.617,1.591,11.425,1.839c2.764,0.247,4.72,0.427,5.867,0.537l7.367,0.413c2.206,0,4.213,0.145,6.353,0.145
				c1.426,0,3.815-0.041,7.169-0.124c0.979,0,2.848-0.089,5.602-0.269c1.176-0.102,3.492-0.355,6.947-0.764l5.58-0.826
				c1.069-0.175,3.318-0.609,6.75-1.302l8.006-1.983c0.941-0.262,4.521-1.404,10.742-3.428c3.25-1.186,19.236-7.32,20.229-7.816
				l-16.738-11.967C177.627,185.094,167.688,184.875,160.695,184.625z M238.824,135.231c0.513-21.966-17.069-39.217-33.943-50.209
				c-1.273-0.837-2.588-1.662-3.944-2.475c-4.185-2.551-8.515-4.85-12.965-6.886c19.563,31.255,21.438,81.733-12.559,100.167
				c-1.238,0.663-2.512,1.31-3.785,1.919h5.554c1.77,0,3.627-0.09,5.307-0.197c7.287-0.412,10.082,2.17,16.255,6.455l2.759,1.919
				l0.637-0.376l-0.618,0.395l22.41,15.637l-9.976-24.316l-0.479,0.377l0.479-0.395l-1.062-2.564
				c0.079-0.084,0.187-0.135,0.301-0.144C225.381,166.146,238.471,151.209,238.824,135.231z M150.76,43.643
				c-27.666-15.325-61.102,0.972-83.523,18.261c-21.544,16.545-45.02,41.61-41.575,70.15c2.567,21.198,15.358,40.865,33.15,53.771
				H58.68c0.241,0.124,0.395,0.227,0.373,0.311l-12.396,32.883l30.386-22.915c7.986-6.06,11.957-6.204,21.742-5.997
				c41.443,1.178,88.568-15.697,89.645-61.713C189.109,99.46,179.127,59.339,150.76,43.643z"/>
			<path id="Path" fill="#393D3F" d="M81,62.748c0,0,26.211-26.564,59.705-12.782C176.809,64.83,180,118,180,118
				C141.2,31.333,81,62.748,81,62.748L81,62.748L81,62.748z"/>
		</g>
	</g>
</g>
</svg>
